<mxfile host="app.diagrams.net" modified="2024-02-07T05:16:58.437Z" agent="Mozilla/5.0 (X11; CrOS x86_64 14541.0.0) AppleWebKit/537.36 (KHTML, like Gecko) Chrome/120.0.0.0 Safari/537.36" etag="6IdayTirU3RER-iAXQPt" version="23.1.1" type="github">
  <diagram name="ページ1" id="1Rx43zWndM3VY3Knliac">
    <mxGraphModel dx="1031" dy="559" grid="1" gridSize="10" guides="1" tooltips="1" connect="1" arrows="1" fold="1" page="1" pageScale="1" pageWidth="1169" pageHeight="827" math="0" shadow="0">
      <root>
        <mxCell id="0" />
        <mxCell id="1" parent="0" />
        <mxCell id="YmINVI_QEcc8TJMIzi_s-3" value="" style="edgeStyle=orthogonalEdgeStyle;rounded=0;orthogonalLoop=1;jettySize=auto;html=1;" parent="1" source="YmINVI_QEcc8TJMIzi_s-1" target="YmINVI_QEcc8TJMIzi_s-2" edge="1">
          <mxGeometry relative="1" as="geometry" />
        </mxCell>
        <mxCell id="YmINVI_QEcc8TJMIzi_s-1" value="&lt;font style=&quot;font-size: 23px;&quot;&gt;Internet&lt;/font&gt;" style="image;aspect=fixed;perimeter=ellipsePerimeter;html=1;align=center;shadow=0;dashed=0;spacingTop=3;image=img/lib/active_directory/internet_cloud.svg;" parent="1" vertex="1">
          <mxGeometry x="370" width="200" height="126" as="geometry" />
        </mxCell>
        <mxCell id="YmINVI_QEcc8TJMIzi_s-2" value="NURO光&lt;br&gt;10GB/sipv-6回線" style="image;aspect=fixed;html=1;points=[];align=center;fontSize=12;image=img/lib/azure2/networking/Public_IP_Addresses.svg;" parent="1" vertex="1">
          <mxGeometry x="432.5" y="240" width="75" height="60" as="geometry" />
        </mxCell>
      </root>
    </mxGraphModel>
  </diagram>
</mxfile>
